<?xml version="1.0" encoding="utf-8" standalone="yes"?>
<!DOCTYPE svg PUBLIC "-//W3C//DTD SVG 1.1//EN" "http://www.w3.org/Graphics/SVG/1.1/DTD/svg11.dtd">
<svg style="fill:none;stroke:none;fill-rule:evenodd;clip-rule:evenodd;stroke-linecap:round;stroke-linejoin:round;stroke-miterlimit:1.5;" version="1.1" xmlns="http://www.w3.org/2000/svg" xmlns:xlink="http://www.w3.org/1999/xlink" width="792" height="576" viewBox="0 0 792 576"><style class="text-font-style fontImports" data-font-family="Roboto">@import url(https://fonts.googleapis.com/css2?family=Roboto:wght@400;700&amp;amp;display=block);</style><g id="items" style="isolation: isolate"><g id="blend" style="mix-blend-mode: normal"><g id="g-root-cp_1_g-1_1hgbh5n1aympe2-fill" data-item-order="-389655" transform="translate(14, 116)"></g><g id="g-root-cp_1_g-1_1hgbh5n1aympe2-stroke" data-item-order="-389655" transform="translate(14, 116)"><g id="cp_1_g-1_1hgbh5n1aympe2-stroke" fill="none" stroke-linecap="round" stroke-linejoin="round" stroke-miterlimit="4" stroke="#ffffff" stroke-width="1" stroke-opacity="1"><g><path d="M 22 10L 166 10L 166 30C 166 38.8366 158.8366 46 150 46L 38 46C 29.1634 46 22 38.8366 22 30L 22 10ZM 56 64C 56 60.6863 58.6863 58 62 58L 66 58C 69.3137 58 72 60.6863 72 64L 72 100L 70 100C 66.6863 100 64 102.6863 64 106L 64 130L 56 130L 56 64ZM 132 64C 132 60.6863 129.3137 58 126 58L 122 58C 118.6863 58 116 60.6863 116 64L 116 100L 118 100C 121.3137 100 124 102.6863 124 106L 124 130L 132 130L 132 64ZM 92 58L 96 58C 99.3137 58 102 60.6863 102 64L 102 100L 86 100L 86 64C 86 60.6863 88.6863 58 92 58ZM 42 46.5L 42 130M 146 46.5L 146 130M 10 160L 10 136C 10 132.6863 12.6863 130 16 130L 64 130L 64 154C 64 157.3137 66.6863 160 70 160L 118 160C 121.3137 160 124 157.3137 124 154L 124 130L 172 130C 175.3137 130 178 132.6863 178 136L 178 160M 178 160L 178 304M 10 304L 10 160M 22 400L 166 400L 166 380C 166 371.1634 158.8366 364 150 364L 38 364C 29.1634 364 22 371.1634 22 380L 22 400ZM 92 352L 96 352C 99.3137 352 102 349.3137 102 346L 102 316L 86 316L 86 346C 86 349.3137 88.6863 352 92 352ZM 122 352L 126 352C 129.3137 352 132 349.3137 132 346L 132 316L 116 316L 116 346C 116 349.3137 118.6863 352 122 352ZM 62 352L 66 352C 69.3137 352 72 349.3137 72 346L 72 316L 56 316L 56 346C 56 349.3137 58.6863 352 62 352ZM 16 316C 12.6863 316 10 313.3137 10 310L 10 304M 16 316L 172 316M 16 316L 42 316M 172 316C 175.3137 316 178 313.3137 178 310L 178 304M 172 316L 146 316M 42 316L 42 364M 42 316L 56 316M 146 316L 146 364M 146 316L 132 316M 86 316L 72 316M 102 316L 116 316"></path></g></g></g><g id="g-root-cp_2_g-2_144uysb1aymqyz-fill" data-item-order="-389631" transform="translate(206, 116)"></g><g id="g-root-cp_2_g-2_144uysb1aymqyz-stroke" data-item-order="-389631" transform="translate(206, 116)"><g id="cp_2_g-2_144uysb1aymqyz-stroke" fill="none" stroke-linecap="round" stroke-linejoin="round" stroke-miterlimit="4" stroke="#ffffff" stroke-width="1" stroke-opacity="1"><g><path d="M 22 10L 166 10L 166 30C 166 38.8366 158.8366 46 150 46L 38 46C 29.1634 46 22 38.8366 22 30L 22 10ZM 56 64C 56 60.6863 58.6863 58 62 58L 66 58C 69.3137 58 72 60.6863 72 64L 72 100L 70 100C 66.6863 100 64 102.6863 64 106L 64 130L 56 130L 56 64ZM 132 64C 132 60.6863 129.3137 58 126 58L 122 58C 118.6863 58 116 60.6863 116 64L 116 100L 118 100C 121.3137 100 124 102.6863 124 106L 124 130L 132 130L 132 64ZM 92 58L 96 58C 99.3137 58 102 60.6863 102 64L 102 100L 86 100L 86 64C 86 60.6863 88.6863 58 92 58ZM 42 46.5L 42 130M 146 46.5L 146 130M 10 160L 10 136C 10 132.6863 12.6863 130 16 130L 64 130L 64 154C 64 157.3137 66.6863 160 70 160L 118 160C 121.3137 160 124 157.3137 124 154L 124 130L 172 130C 175.3137 130 178 132.6863 178 136L 178 160M 178 160L 178 304M 10 304L 10 160M 22 400L 166 400L 166 380C 166 371.1634 158.8366 364 150 364L 38 364C 29.1634 364 22 371.1634 22 380L 22 400ZM 92 352L 96 352C 99.3137 352 102 349.3137 102 346L 102 316L 86 316L 86 346C 86 349.3137 88.6863 352 92 352ZM 122 352L 126 352C 129.3137 352 132 349.3137 132 346L 132 316L 116 316L 116 346C 116 349.3137 118.6863 352 122 352ZM 62 352L 66 352C 69.3137 352 72 349.3137 72 346L 72 316L 56 316L 56 346C 56 349.3137 58.6863 352 62 352ZM 16 316C 12.6863 316 10 313.3137 10 310L 10 304M 16 316L 172 316M 16 316L 42 316M 172 316C 175.3137 316 178 313.3137 178 310L 178 304M 172 316L 146 316M 42 316L 42 364M 42 316L 56 316M 146 316L 146 364M 146 316L 132 316M 86 316L 72 316M 102 316L 116 316"></path></g></g></g><g id="g-root-cp_3_g-3_qu0xi31aympe4-fill" data-item-order="-389607" transform="translate(398, 116)"></g><g id="g-root-cp_3_g-3_qu0xi31aympe4-stroke" data-item-order="-389607" transform="translate(398, 116)"><g id="cp_3_g-3_qu0xi31aympe4-stroke" fill="none" stroke-linecap="round" stroke-linejoin="round" stroke-miterlimit="4" stroke="#ffffff" stroke-width="1" stroke-opacity="1"><g><path d="M 22 10L 166 10L 166 30C 166 38.8366 158.8366 46 150 46L 38 46C 29.1634 46 22 38.8366 22 30L 22 10ZM 56 64C 56 60.6863 58.6863 58 62 58L 66 58C 69.3137 58 72 60.6863 72 64L 72 100L 70 100C 66.6863 100 64 102.6863 64 106L 64 130L 56 130L 56 64ZM 132 64C 132 60.6863 129.3137 58 126 58L 122 58C 118.6863 58 116 60.6863 116 64L 116 100L 118 100C 121.3137 100 124 102.6863 124 106L 124 130L 132 130L 132 64ZM 92 58L 96 58C 99.3137 58 102 60.6863 102 64L 102 100L 86 100L 86 64C 86 60.6863 88.6863 58 92 58ZM 42 46.5L 42 130M 146 46.5L 146 130M 10 160L 10 136C 10 132.6863 12.6863 130 16 130L 64 130L 64 154C 64 157.3137 66.6863 160 70 160L 118 160C 121.3137 160 124 157.3137 124 154L 124 130L 172 130C 175.3137 130 178 132.6863 178 136L 178 160M 178 160L 178 304M 10 304L 10 160M 22 400L 166 400L 166 380C 166 371.1634 158.8366 364 150 364L 38 364C 29.1634 364 22 371.1634 22 380L 22 400ZM 92 352L 96 352C 99.3137 352 102 349.3137 102 346L 102 316L 86 316L 86 346C 86 349.3137 88.6863 352 92 352ZM 122 352L 126 352C 129.3137 352 132 349.3137 132 346L 132 316L 116 316L 116 346C 116 349.3137 118.6863 352 122 352ZM 62 352L 66 352C 69.3137 352 72 349.3137 72 346L 72 316L 56 316L 56 346C 56 349.3137 58.6863 352 62 352ZM 16 316C 12.6863 316 10 313.3137 10 310L 10 304M 16 316L 172 316M 16 316L 42 316M 172 316C 175.3137 316 178 313.3137 178 310L 178 304M 172 316L 146 316M 42 316L 42 364M 42 316L 56 316M 146 316L 146 364M 146 316L 132 316M 86 316L 72 316M 102 316L 116 316"></path></g></g></g><g id="g-root-cp_4_g-4_me7fdn1aymq6d-fill" data-item-order="-389583" transform="translate(590, 116)"></g><g id="g-root-cp_4_g-4_me7fdn1aymq6d-stroke" data-item-order="-389583" transform="translate(590, 116)"><g id="cp_4_g-4_me7fdn1aymq6d-stroke" fill="none" stroke-linecap="round" stroke-linejoin="round" stroke-miterlimit="4" stroke="#ffffff" stroke-width="1" stroke-opacity="1"><g><path d="M 22 10L 166 10L 166 30C 166 38.8366 158.8366 46 150 46L 38 46C 29.1634 46 22 38.8366 22 30L 22 10ZM 56 64C 56 60.6863 58.6863 58 62 58L 66 58C 69.3137 58 72 60.6863 72 64L 72 100L 70 100C 66.6863 100 64 102.6863 64 106L 64 130L 56 130L 56 64ZM 132 64C 132 60.6863 129.3137 58 126 58L 122 58C 118.6863 58 116 60.6863 116 64L 116 100L 118 100C 121.3137 100 124 102.6863 124 106L 124 130L 132 130L 132 64ZM 92 58L 96 58C 99.3137 58 102 60.6863 102 64L 102 100L 86 100L 86 64C 86 60.6863 88.6863 58 92 58ZM 42 46.5L 42 130M 146 46.5L 146 130M 10 160L 10 136C 10 132.6863 12.6863 130 16 130L 64 130L 64 154C 64 157.3137 66.6863 160 70 160L 118 160C 121.3137 160 124 157.3137 124 154L 124 130L 172 130C 175.3137 130 178 132.6863 178 136L 178 160M 178 160L 178 304M 10 304L 10 160M 22 400L 166 400L 166 380C 166 371.1634 158.8366 364 150 364L 38 364C 29.1634 364 22 371.1634 22 380L 22 400ZM 92 352L 96 352C 99.3137 352 102 349.3137 102 346L 102 316L 86 316L 86 346C 86 349.3137 88.6863 352 92 352ZM 122 352L 126 352C 129.3137 352 132 349.3137 132 346L 132 316L 116 316L 116 346C 116 349.3137 118.6863 352 122 352ZM 62 352L 66 352C 69.3137 352 72 349.3137 72 346L 72 316L 56 316L 56 346C 56 349.3137 58.6863 352 62 352ZM 16 316C 12.6863 316 10 313.3137 10 310L 10 304M 16 316L 172 316M 16 316L 42 316M 172 316C 175.3137 316 178 313.3137 178 310L 178 304M 172 316L 146 316M 42 316L 42 364M 42 316L 56 316M 146 316L 146 364M 146 316L 132 316M 86 316L 72 316M 102 316L 116 316"></path></g></g></g><g id="g-root-tx_fundamen_93de3f1aymoli-fill" data-item-order="0" transform="translate(153.3984375, 38)"><g id="tx_fundamen_93de3f1aymoli-fill-merged" stroke="none" fill="#ffffff" fill-opacity="1"><g><text style="font: bold 25px Roboto, sans-serif; white-space: pre;" transform="translate(242.6015625, 25)" font-weight="bold" font-size="25px" font-family="Roboto, sans-serif"><tspan x="-230.6" y="14" dominant-baseline="ideographic">Fundamentos da Estratégia de Marketing</tspan></text></g></g></g><g id="g-root-tx_fundamen_93de3f1aymoli-stroke" data-item-order="0" transform="translate(153.3984375, 38)"></g><g id="g-root-ic_1_1hhkfbv1aymrk7-fill" data-item-order="0" transform="translate(74, 212)"></g><g id="g-root-ic_1_1hhkfbv1aymrk7-stroke" data-item-order="0" transform="translate(74, 212)"><g id="ic_1_1hhkfbv1aymrk7-stroke" fill="none" stroke-linecap="round" stroke-linejoin="round" stroke-miterlimit="4" stroke="#ffffff" stroke-width="1" stroke-opacity="1"><g><path d="M 15 11L 53 11C 53 11 57 11 57 15L 57 53C 57 53 57 57 53 57L 15 57C 15 57 11 57 11 53L 11 15C 11 15 11 11 15 11M 11 26L 17.992001 26M 11 45L 21 45M 42 11L 42 20M 44 32L 44 41M 26 11L 26 20M 21 45C 21 47.761425 23.238577 50 26 50C 28.761423 50 31 47.761425 31 45C 31 42.238575 28.761423 40 26 40C 23.238577 40 21 42.238575 21 45M 46 32L 26 32L 17.992001 26L 26 20L 46 20L 46 32ZM 39.5 41L 47.5 41L 47.5 49L 39.5 49ZM 31 45L 39.5 45M 47.5 45L 57 45M 44 49L 44 57M 26 32L 26 40M 26 50L 26 57M 46 26L 57 26"></path></g></g></g><g id="g-root-ic_2_144uysb1aysav5-fill" data-item-order="0" transform="translate(266, 212)"></g><g id="g-root-ic_2_144uysb1aysav5-stroke" data-item-order="0" transform="translate(266, 212)"><g id="ic_2_144uysb1aysav5-stroke" fill="none" stroke-linecap="round" stroke-linejoin="round" stroke-miterlimit="4" stroke="#ffffff" stroke-width="1" stroke-opacity="1"><g><path d="M 20.768 34.295998L 20.768 13.524C 20.768 12.419431 21.663429 11.524 22.768 11.524L 54.015999 11.524C 55.120571 11.524 56.015999 12.419431 56.015999 13.524L 56.015999 54.476002C 56.015999 55.58057 55.120571 56.476002 54.015999 56.476002L 43.104 56.476002M 13.984 40.042L 34.591999 40.042C 34.591999 40.042 36.591999 40.042 36.591999 42.042L 36.591999 54.464001C 36.591999 54.464001 36.591999 56.464001 34.591999 56.464001L 13.984 56.464001C 13.984 56.464001 11.984 56.464001 11.984 54.464001L 11.984 42.042C 11.984 42.042 11.984 40.042 13.984 40.042M 25.397999 19.312C 25.398001 21.132332 26.873671 22.608002 28.694 22.608002C 30.514332 22.608002 31.990002 21.132332 31.990002 19.312C 31.990002 17.491671 30.514332 16.016001 28.694 16.016001C 26.873671 16.016001 25.398001 17.491671 25.398001 19.312M 15.746 46.222C 15.746 47.526497 16.803503 48.584 18.108 48.584C 19.412497 48.584 20.470001 47.526497 20.470001 46.222C 20.470001 44.917503 19.412497 43.860001 18.108 43.860001C 16.803503 43.860001 15.746 44.917503 15.746 46.222M 39.256001 17.624001L 50.113998 17.624001M 39.256001 23.931999L 50.113998 23.931999M 22.818001 51.251999L 31.188 51.251999"></path></g></g></g><g id="g-root-ic_moni_1hfp02j1aytpu2-fill" data-item-order="0" transform="translate(458, 212)"></g><g id="g-root-ic_moni_1hfp02j1aytpu2-stroke" data-item-order="0" transform="translate(458, 212)"><g id="ic_moni_1hfp02j1aytpu2-stroke" fill="none" stroke-linecap="round" stroke-linejoin="round" stroke-miterlimit="4" stroke="#ffffff" stroke-width="1" stroke-opacity="1"><g><path d="M 33.5 31.959999L 42.5 22.959999M 43.68 15.780001C 42.92392 16.531593 42.499157 17.553911 42.5 18.619999L 42.5 22.959999L 47.84 22.959999C 48.90609 22.960846 49.928406 22.536079 50.68 21.779999L 55.5 16.959999L 48.5 16.959999L 48.5 10.96ZM 39.5 56.959999L 27.5 56.959999C 29.217556 54.620441 30.255709 51.852032 30.5 48.959999L 36.5 48.959999C 36.756348 51.849304 37.793324 54.614571 39.5 56.959999ZM 24.540001 57.040001L 43.5 56.959999M 12.5 42.959999L 54.5 42.959999M 54.5 26.959999L 54.5 46C 54.5 47.656857 53.156857 49 51.5 49L 15.5 49C 13.843145 49 12.5 47.656857 12.5 46L 12.5 20C 12.5 18.343147 13.843145 17 15.5 17L 34.34 17M 26.5 31.959999C 26.500002 35.825996 29.634008 38.959999 33.5 38.959999C 37.365993 38.959999 40.5 35.825996 40.5 31.960001C 40.5 28.094007 37.365993 24.960001 33.5 24.960001C 29.634008 24.960001 26.500002 28.094007 26.500002 31.960001"></path></g></g></g><g id="g-root-ic_1_8z02hn1ayv56s-fill" data-item-order="0" transform="translate(650, 212)"></g><g id="g-root-ic_1_8z02hn1ayv56s-stroke" data-item-order="0" transform="translate(650, 212)"><g id="ic_1_8z02hn1ayv56s-stroke" fill="none" stroke-linecap="round" stroke-linejoin="round" stroke-miterlimit="4" stroke="#ffffff" stroke-width="1" stroke-opacity="1"><g><path d="M 33 45.001999C 33 51.629417 38.372581 57.002003 45 57.002003C 51.627419 57.002003 57 51.629417 57 45.002003C 57 38.374584 51.627419 33.001999 45 33.001999C 38.372581 33.001999 33 38.374584 33 45.002003ZM 50.348 41.512001L 44.537998 49.259998C 44.276604 49.607647 43.877338 49.824909 43.44347 49.855598C 43.009598 49.886288 42.583725 49.72739 42.275997 49.419998L 39.276001 46.419998M 29 47L 13 47C 11.895431 47 11 46.104568 11 45L 11 17C 11 15.895431 11.895431 15 13 15L 49 15C 50.104568 15 51 15.895431 51 17L 51 30M 21 11.002L 21 21.001999M 41 11.002L 41 21.001999M 11 25.001999L 51 25.001999"></path></g></g></g><g id="g-root-tx_estratgi_8z02hn1aysdms-fill" data-item-order="0" transform="translate(49.2421875, 272)"><g id="tx_estratgi_8z02hn1aysdms-fill-merged" stroke="none" fill="#ffffff" fill-opacity="1"><g><text style="font: bold 15px Roboto, sans-serif; white-space: pre;" transform="translate(58.7578125, 28)" font-weight="bold" font-size="15px" font-family="Roboto, sans-serif"><tspan x="-34.12" y="0" dominant-baseline="ideographic">Estratégia </tspan><tspan x="-46.76" y="18" dominant-baseline="ideographic">Documentada</tspan></text></g></g></g><g id="g-root-tx_estratgi_8z02hn1aysdms-stroke" data-item-order="0" transform="translate(49.2421875, 272)"></g><g id="g-root-tx_identida_1lrrnob1aytrt1-fill" data-item-order="0" transform="translate(229.4921875, 272)"><g id="tx_identida_1lrrnob1aytrt1-fill-merged" stroke="none" fill="#ffffff" fill-opacity="1"><g><text style="font: bold 15px Roboto, sans-serif; white-space: pre;" transform="translate(70.5078125, 19)" font-weight="bold" font-size="15px" font-family="Roboto, sans-serif"><tspan x="-58.51" y="9" dominant-baseline="ideographic">Identidade Visual</tspan></text></g></g></g><g id="g-root-tx_identida_1lrrnob1aytrt1-stroke" data-item-order="0" transform="translate(229.4921875, 272)"></g><g id="g-root-tx_sitealin_1q5pqjf1ayv66e-fill" data-item-order="0" transform="translate(423.078125, 272)"><g id="tx_sitealin_1q5pqjf1ayv66e-fill-merged" stroke="none" fill="#ffffff" fill-opacity="1"><g><text style="font: bold 15px Roboto, sans-serif; white-space: pre;" transform="translate(68.921875, 28)" font-weight="bold" font-size="15px" font-family="Roboto, sans-serif"><tspan x="-56.92" y="0" dominant-baseline="ideographic">Site Alinhado ao </tspan><tspan x="-29.75" y="18" dominant-baseline="ideographic">Objetivo</tspan></text></g></g></g><g id="g-root-tx_sitealin_1q5pqjf1ayv66e-stroke" data-item-order="0" transform="translate(423.078125, 272)"></g><g id="g-root-tx_postspro_qunel71ayv5e7-fill" data-item-order="0" transform="translate(605.8359375, 272)"><g id="tx_postspro_qunel71ayv5e7-fill-merged" stroke="none" fill="#ffffff" fill-opacity="1"><g><text style="font: bold 15px Roboto, sans-serif; white-space: pre;" transform="translate(78.1640625, 28)" font-weight="bold" font-size="15px" font-family="Roboto, sans-serif"><tspan x="-66.16" y="0" dominant-baseline="ideographic">Posts Prontos para </tspan><tspan x="-29.76" y="18" dominant-baseline="ideographic">Publicar</tspan></text></g></g></g><g id="g-root-tx_postspro_qunel71ayv5e7-stroke" data-item-order="0" transform="translate(605.8359375, 272)"></g><g id="g-root-tx_abasevis_1hdtkt71aytqtq-fill" data-item-order="0" transform="translate(220.390625, 302)"><g id="tx_abasevis_1hdtkt71aytqtq-fill-merged" stroke="none" fill="#ffffff" fill-opacity="1"><g><text style="font: 15px Roboto, sans-serif; white-space: pre;" transform="translate(79.609375, 55)" font-size="15px" font-family="Roboto, sans-serif"><tspan x="-60.22" y="-27" dominant-baseline="ideographic">A base visual que </tspan><tspan x="-67.61" y="-9" dominant-baseline="ideographic">garante a coerência </tspan><tspan x="-66.48" y="9" dominant-baseline="ideographic">da marca em todos </tspan><tspan x="-45.11" y="27" dominant-baseline="ideographic">os pontos de </tspan><tspan x="-29.38" y="45" dominant-baseline="ideographic">contato.</tspan></text></g></g></g><g id="g-root-tx_abasevis_1hdtkt71aytqtq-stroke" data-item-order="0" transform="translate(220.390625, 302)"></g><g id="g-root-tx_posicion_18it1nf1aysb2l-fill" data-item-order="0" transform="translate(27.1171875, 320)"><g id="tx_posicion_18it1nf1aysb2l-fill-merged" stroke="none" fill="#ffffff" fill-opacity="1"><g><text style="font: 15px Roboto, sans-serif; white-space: pre;" transform="translate(80.8828125, 55)" font-size="15px" font-family="Roboto, sans-serif"><tspan x="-55.74" y="-27" dominant-baseline="ideographic">Posicionamento, </tspan><tspan x="-65.16" y="-9" dominant-baseline="ideographic">público, mensagem </tspan><tspan x="-40.71" y="9" dominant-baseline="ideographic">e direção de </tspan><tspan x="-48.05" y="27" dominant-baseline="ideographic">conteúdo para </tspan><tspan x="-68.88" y="45" dominant-baseline="ideographic">comunicação eficaz.</tspan></text></g></g></g><g id="g-root-tx_posicion_18it1nf1aysb2l-stroke" data-item-order="0" transform="translate(27.1171875, 320)"></g><g id="g-root-tx_umaprese_qns6mz1ayv6z3-fill" data-item-order="0" transform="translate(411.734375, 320)"><g id="tx_umaprese_qns6mz1ayv6z3-fill-merged" stroke="none" fill="#ffffff" fill-opacity="1"><g><text style="font: 15px Roboto, sans-serif; white-space: pre;" transform="translate(80.265625, 46)" font-size="15px" font-family="Roboto, sans-serif"><tspan x="-49.78" y="-18" dominant-baseline="ideographic">Uma presença </tspan><tspan x="-67.09" y="0" dominant-baseline="ideographic">digital que organiza </tspan><tspan x="-68.27" y="18" dominant-baseline="ideographic">ofertas e sustenta a </tspan><tspan x="-39.47" y="36" dominant-baseline="ideographic">autoridade.</tspan></text></g></g></g><g id="g-root-tx_umaprese_qns6mz1ayv6z3-stroke" data-item-order="0" transform="translate(411.734375, 320)"></g><g id="g-root-tx_peaspens_1hitdi31ayv4eh-fill" data-item-order="0" transform="translate(602.0546875, 320)"><g id="tx_peaspens_1hitdi31ayv4eh-fill-merged" stroke="none" fill="#ffffff" fill-opacity="1"><g><text style="font: 15px Roboto, sans-serif; white-space: pre;" transform="translate(81.9453125, 46)" font-size="15px" font-family="Roboto, sans-serif"><tspan x="-55.91" y="-18" dominant-baseline="ideographic">Peças pensadas </tspan><tspan x="-47.4" y="0" dominant-baseline="ideographic">para manter a </tspan><tspan x="-69.95" y="18" dominant-baseline="ideographic">comunicação ativa e </tspan><tspan x="-41.96" y="36" dominant-baseline="ideographic">consistente.</tspan></text></g></g></g><g id="g-root-tx_peaspens_1hitdi31ayv4eh-stroke" data-item-order="0" transform="translate(602.0546875, 320)"></g></g></g><path id="w18lbamz1c2s5jb" d="M65.283 12.757a.35.35 0 0 0 .584.157l5.203-5.141-6.183 3.523.396 1.461zm-2.216-11.7a.35.35 0 0 0-.522.305v3.111l3.276-1.868-2.754-1.548zm3.728 2.105l-4.25 2.421v2.445l6.391-3.644-2.141-1.222zm4.708 3.303a.35.35 0 0 0 0-.609l-1.592-.9-7.365 4.199v1.782a.35.35 0 0 0 .523.305l8.435-4.777z M44.542 2.513c0-.433.355-.783.792-.783s.792.35.792.783-.355.783-.792.783-.792-.35-.792-.783zm59.171 0c0-.433.355-.783.792-.783s.792.35.792.783-.355.783-.792.783-.792-.35-.792-.783zm-85.951 7.636h-1.27v-.487c-.276.201-.864.609-1.881.609-1.202 0-2.274-.794-2.137-2.078.118-1.106 1.153-1.584 1.848-1.727l2.17-.345c0-.539-.29-.956-1.064-1.006s-1.21.305-1.571 1.017l-1.124-.605c1.218-2.631 5.029-1.764 5.029.414v4.207zm-1.27-2.86c.006.396-.062 1.112-.819 1.59-.587.37-1.841.299-1.903-.395-.049-.555.461-.791.906-.898l1.816-.297zm72.662 2.86h-1.27v-.487c-.276.201-.864.609-1.881.609-1.202 0-2.274-.794-2.137-2.078.118-1.106 1.153-1.584 1.848-1.727l2.17-.345c0-.539-.29-.956-1.064-1.006s-1.21.305-1.571 1.017l-1.124-.605c1.218-2.631 5.029-1.764 5.029.414v4.207zm-1.27-2.86c.006.396-.062 1.112-.82 1.59-.587.37-1.841.299-1.903-.395-.049-.555.461-.791.906-.898l1.816-.297zM99.096 10.149H97.85v-8.45h1.246v4.895l2.68-2.559h1.738l-2.633 2.535 2.715 3.578h-1.556l-2.077-2.707-.867.844v1.863zm6.053-6.114h-1.255v6.113h1.255V4.035zm-59.2 0h-1.255v6.113h1.255V4.035zm5.584 6.113V1.697h1.255v2.695c.361-.346 1-.485 1.47-.485 1.452 0 2.477 1.082 2.457 2.448v3.792h-1.27v-3.68c0-.408-.214-1.339-1.315-1.339-.968 0-1.342.756-1.342 1.339v3.681h-1.255zm-4.76-4.894V4.039h.621a.45.45 0 0 0 .45-.45v-.855h1.251v1.305h1.309v1.215h-1.309v3.109c0 .293.105.664.648.664.365 0 .531-.035.736-.07v1.137s-.361.113-.857.113c-1.398 0-1.777-1.051-1.777-1.788V5.254h-1.071zM36.528 4.039h-1.394l2.191 6.106h1.125l1.234-3.918 1.238 3.918h1.129l2.188-6.106h-1.383l-1.359 3.93-1.256-3.93h-1.124l-1.242 3.957-1.348-3.957zM26.212 7.141c-.02 1.566 1.187 3.129 3.223 3.129 1.566 0 2.383-.918 2.734-1.719L31.172 8c-.315.399-.801 1.094-1.738 1.094-1.145 0-1.825-.781-1.891-1.52h4.625c.074-.284.148-.995-.03-1.559-.336-1.064-1.221-2.102-2.839-2.102s-3.088 1.152-3.088 3.227zm1.363-.75h3.348c-.055-.43-.566-1.301-1.623-1.301a1.79 1.79 0 0 0-1.725 1.301zm-8.758.75c.038 1.758 1.277 3.133 3.145 3.133 1.074 0 1.723-.477 1.961-.672v.547h1.242V1.703h-1.258v2.888c-.414-.36-1.062-.68-1.93-.68-1.91 0-3.198 1.473-3.16 3.23zm1.309-.08c0 1.119.723 1.978 1.836 1.978a1.88 1.88 0 0 0 1.94-1.904c0-1.371-1.011-1.99-1.972-1.99s-1.805.798-1.805 1.916zm76.683-.028C96.771 5.275 95.532 3.9 93.664 3.9c-1.074 0-1.723.477-1.961.672v-.547h-1.242v8.22h1.258V9.583c.414.36 1.063.68 1.93.68 1.91 0 3.198-1.473 3.16-3.23zm-1.309.08c0-1.119-.723-1.978-1.836-1.978a1.88 1.88 0 0 0-1.94 1.904c0 1.371 1.011 1.99 1.972 1.99S95.5 8.231 95.5 7.113zM106.441 10.173V4.036h1.254v.382c.361-.346 1-.485 1.47-.485 1.452 0 2.477 1.082 2.457 2.448v3.792h-1.27V6.492c0-.408-.214-1.339-1.315-1.339-.969 0-1.342.756-1.342 1.339v3.681h-1.254zm-30.383-.021V1.824h1.084l4.215 5.777V1.824h1.32v8.328h-1.094l-4.207-5.796v5.796h-1.319zM5.24 10.149H4V2.377h1.014l2.664 3.597 2.654-3.592h1.03v7.766h-1.256V4.762L7.678 8.068 5.24 4.742v5.407z" transform="translate(656, 542)" fill="#ababab88" stroke="none"></path></svg>